{
	"asset":{
		"generator":"Khronos glTF Blender I/O v4.5.47",
		"version":"2.0"
	},
	"scene":0,
	"scenes":[
		{
			"name":"Scene",
			"nodes":[
				3
			]
		}
	],
	"nodes":[
		{
			"mesh":0,
			"name":"cmws3_coffee",
			"translation":[
				0.005146646406501532,
				0.03644978627562523,
				0
			]
		},
		{
			"mesh":1,
			"name":"cmws3_mug",
			"translation":[
				0.005146646406501532,
				0.03644978627562523,
				0
			]
		},
		{
			"mesh":2,
			"name":"cmws3_saucer",
			"translation":[
				-0.012259130366146564,
				0.007300879806280136,
				0
			]
		},
		{
			"children":[
				0,
				1,
				2
			],
			"name":"mugwithsaucer03"
		}
	],
	"materials":[
		{
			"doubleSided":true,
			"name":"coffee_Mat",
			"normalTexture":{
				"index":0
			},
			"pbrMetallicRoughness":{
				"baseColorTexture":{
					"index":1
				},
				"metallicRoughnessTexture":{
					"index":2
				}
			}
		},
		{
			"doubleSided":true,
			"name":"cup_Mat",
			"normalTexture":{
				"index":3
			},
			"pbrMetallicRoughness":{
				"baseColorTexture":{
					"index":4
				},
				"metallicRoughnessTexture":{
					"index":5
				}
			}
		}
	],
	"meshes":[
		{
			"name":"Mesh.002",
			"primitives":[
				{
					"attributes":{
						"POSITION":0,
						"NORMAL":1,
						"TEXCOORD_0":2
					},
					"indices":3,
					"material":0
				}
			]
		},
		{
			"name":"Mesh.001",
			"primitives":[
				{
					"attributes":{
						"POSITION":4,
						"NORMAL":5,
						"TEXCOORD_0":6
					},
					"indices":7,
					"material":1
				}
			]
		},
		{
			"name":"Mesh",
			"primitives":[
				{
					"attributes":{
						"POSITION":8,
						"NORMAL":9,
						"TEXCOORD_0":10
					},
					"indices":11,
					"material":1
				}
			]
		}
	],
	"textures":[
		{
			"sampler":0,
			"source":0
		},
		{
			"sampler":0,
			"source":1
		},
		{
			"sampler":0,
			"source":2
		},
		{
			"sampler":0,
			"source":3
		},
		{
			"sampler":0,
			"source":4
		},
		{
			"sampler":0,
			"source":5
		}
	],
	"images":[
		{
			"mimeType":"image/png",
			"name":"mugwithsaucer03_coffee_Mat_Normal",
			"uri":"textures/mugwithsaucer03_coffee_Mat_Normal.png"
		},
		{
			"mimeType":"image/png",
			"name":"mugwithsaucer03_coffee_Mat_BaseColor",
			"uri":"textures/mugwithsaucer03_coffee_Mat_BaseColor.png"
		},
		{
			"mimeType":"image/png",
			"name":"mugwithsaucer03_coffee_Mat_Metallic-mugwithsaucer03_coffee_Mat_Roughness",
			"uri":"textures/mugwithsaucer03_coffee_Mat_Metallic-mugwithsaucer03_coffee_Mat_Roughness.png"
		},
		{
			"mimeType":"image/png",
			"name":"mugwithsaucer03_cup_Mat_Normal",
			"uri":"textures/mugwithsaucer03_cup_Mat_Normal.png"
		},
		{
			"mimeType":"image/png",
			"name":"mugwithsaucer03_cup_Mat_BaseColor",
			"uri":"textures/mugwithsaucer03_cup_Mat_BaseColor.png"
		},
		{
			"mimeType":"image/png",
			"name":"mugwithsaucer03_cup_Mat_Metallic-mugwithsaucer03_cup_Mat_Roughness",
			"uri":"textures/mugwithsaucer03_cup_Mat_Metallic-mugwithsaucer03_cup_Mat_Roughness.png"
		}
	],
	"accessors":[
		{
			"bufferView":0,
			"componentType":5126,
			"count":1201,
			"max":[
				0.03200026601552963,
				0.026331523433327675,
				0.04991771653294563
			],
			"min":[
				-0.06783518940210342,
				0.024147003889083862,
				-0.04991772398352623
			],
			"type":"VEC3"
		},
		{
			"bufferView":1,
			"componentType":5126,
			"count":1201,
			"type":"VEC3"
		},
		{
			"bufferView":2,
			"componentType":5126,
			"count":1201,
			"type":"VEC2"
		},
		{
			"bufferView":3,
			"componentType":5123,
			"count":6912,
			"type":"SCALAR"
		},
		{
			"bufferView":4,
			"componentType":5126,
			"count":12807,
			"max":[
				0.0705842450261116,
				0.031363602727651596,
				0.0526667982339859
			],
			"min":[
				-0.0705842450261116,
				-0.031363602727651596,
				-0.0526667982339859
			],
			"type":"VEC3"
		},
		{
			"bufferView":5,
			"componentType":5126,
			"count":12807,
			"type":"VEC3"
		},
		{
			"bufferView":6,
			"componentType":5126,
			"count":12807,
			"type":"VEC2"
		},
		{
			"bufferView":7,
			"componentType":5123,
			"count":73440,
			"type":"SCALAR"
		},
		{
			"bufferView":8,
			"componentType":5126,
			"count":11680,
			"max":[
				0.06347163021564484,
				0.007300879806280136,
				0.06347160786390305
			],
			"min":[
				-0.06347163021564484,
				-0.007300879806280136,
				-0.06347160786390305
			],
			"type":"VEC3"
		},
		{
			"bufferView":9,
			"componentType":5126,
			"count":11680,
			"type":"VEC3"
		},
		{
			"bufferView":10,
			"componentType":5126,
			"count":11680,
			"type":"VEC2"
		},
		{
			"bufferView":11,
			"componentType":5123,
			"count":67968,
			"type":"SCALAR"
		}
	],
	"bufferViews":[
		{
			"buffer":0,
			"byteLength":14412,
			"byteOffset":0,
			"target":34962
		},
		{
			"buffer":0,
			"byteLength":14412,
			"byteOffset":14412,
			"target":34962
		},
		{
			"buffer":0,
			"byteLength":9608,
			"byteOffset":28824,
			"target":34962
		},
		{
			"buffer":0,
			"byteLength":13824,
			"byteOffset":38432,
			"target":34963
		},
		{
			"buffer":0,
			"byteLength":153684,
			"byteOffset":52256,
			"target":34962
		},
		{
			"buffer":0,
			"byteLength":153684,
			"byteOffset":205940,
			"target":34962
		},
		{
			"buffer":0,
			"byteLength":102456,
			"byteOffset":359624,
			"target":34962
		},
		{
			"buffer":0,
			"byteLength":146880,
			"byteOffset":462080,
			"target":34963
		},
		{
			"buffer":0,
			"byteLength":140160,
			"byteOffset":608960,
			"target":34962
		},
		{
			"buffer":0,
			"byteLength":140160,
			"byteOffset":749120,
			"target":34962
		},
		{
			"buffer":0,
			"byteLength":93440,
			"byteOffset":889280,
			"target":34962
		},
		{
			"buffer":0,
			"byteLength":135936,
			"byteOffset":982720,
			"target":34963
		}
	],
	"samplers":[
		{
			"magFilter":9729,
			"minFilter":9987
		}
	],
	"buffers":[
		{
			"byteLength":1118656,
			"uri":"mugwithsaucer03_v3.1_Cycles.bin"
		}
	]
}
